<?xml version="1.0" standalone="no"?>
<!DOCTYPE svg PUBLIC "-//W3C//DTD SVG 20010904//EN"
 "http://www.w3.org/TR/2001/REC-SVG-20010904/DTD/svg10.dtd">
<svg version="1.0" xmlns="http://www.w3.org/2000/svg"
 width="692.000000pt" height="692.000000pt" viewBox="0 0 692.000000 692.000000"
 preserveAspectRatio="xMidYMid meet">

<g transform="translate(0.000000,692.000000) scale(0.100000,-0.100000)"
fill="#000000" stroke="none">
<path d="M3075 6905 c-487 -62 -932 -219 -1343 -476 -376 -234 -729 -572 -989
-944 -267 -384 -456 -823 -553 -1285 -22 -104 -20 -134 16 -197 58 -100 203
-123 295 -46 41 35 53 62 79 178 204 921 795 1688 1618 2099 395 197 811 296
1252 296 736 0 1438 -288 1988 -816 263 -251 448 -504 622 -848 103 -204 126
-228 225 -234 82 -5 144 22 183 81 22 34 27 52 27 106 0 61 -5 77 -63 195
-166 342 -368 629 -632 900 -216 221 -391 363 -635 516 -418 262 -878 422
-1380 480 -122 14 -586 11 -710 -5z"/>
<path d="M304 3230 c-114 -17 -220 -95 -274 -203 -28 -56 -30 -68 -30 -167 0
-99 2 -111 31 -168 136 -272 524 -278 670 -10 33 61 34 66 34 178 0 105 -3
119 -27 166 -37 70 -73 111 -133 149 -81 52 -170 70 -271 55z"/>
<path d="M6102 2004 c-46 -23 -59 -36 -101 -108 -118 -200 -236 -366 -359
-504 -455 -512 -1050 -850 -1692 -961 -211 -36 -340 -44 -592 -38 -139 4 -247
3 -261 -2 -86 -33 -140 -139 -117 -229 16 -63 53 -110 109 -135 43 -20 67 -22
326 -25 278 -4 388 2 578 34 562 94 1086 332 1547 703 138 110 370 346 489
495 182 228 346 490 357 567 17 125 -75 229 -202 229 -16 0 -54 -12 -82 -26z"/>
<path d="M803 1906 c-106 -34 -190 -108 -236 -206 -27 -56 -31 -76 -32 -150 0
-171 87 -302 243 -361 84 -31 215 -24 297 16 286 139 278 549 -13 683 -69 31
-192 40 -259 18z"/>
<path d="M1835 933 c-97 -40 -165 -105 -211 -199 -25 -52 -28 -71 -28 -154 0
-82 3 -103 26 -152 73 -158 239 -249 404 -221 213 37 347 223 313 435 -19 120
-91 217 -204 276 -43 22 -65 26 -155 29 -81 2 -114 -1 -145 -14z"/>
</g>
</svg>
